<?xml version="1.0" encoding="UTF-8" standalone="no"?>
<svg
   xmlns:dc="http://purl.org/dc/elements/1.1/"
   xmlns:cc="http://creativecommons.org/ns#"
   xmlns:rdf="http://www.w3.org/1999/02/22-rdf-syntax-ns#"
   xmlns:svg="http://www.w3.org/2000/svg"
   xmlns="http://www.w3.org/2000/svg"
   xmlns:sodipodi="http://sodipodi.sourceforge.net/DTD/sodipodi-0.dtd"
   xmlns:inkscape="http://www.inkscape.org/namespaces/inkscape"
   width="35mm"
   height="21.391104mm"
   viewBox="0 0 35 21.391105"
   version="1.1"
   id="svg8"
   inkscape:version="1.0.2 (e86c870879, 2021-01-15, custom)"
   sodipodi:docname="lablink_logo_rtd.svg"
   inkscape:export-filename="C:\Development\lablink\lablink-docs-main\logo\logo_lablink.png"
   inkscape:export-xdpi="298.5"
   inkscape:export-ydpi="298.5">
  <defs
     id="defs2" />
  <sodipodi:namedview
     id="base"
     pagecolor="#ffffff"
     bordercolor="#666666"
     borderopacity="1.0"
     inkscape:pageopacity="0.0"
     inkscape:pageshadow="2"
     inkscape:zoom="4"
     inkscape:cx="16.838236"
     inkscape:cy="35.455356"
     inkscape:document-units="mm"
     inkscape:current-layer="g1002"
     inkscape:document-rotation="0"
     showgrid="false"
     fit-margin-top="0"
     fit-margin-left="0"
     fit-margin-right="0"
     fit-margin-bottom="0"
     inkscape:window-width="1366"
     inkscape:window-height="705"
     inkscape:window-x="-8"
     inkscape:window-y="-8"
     inkscape:window-maximized="1" />
  <metadata
     id="metadata5">
    <rdf:RDF>
      <cc:Work
         rdf:about="">
        <dc:format>image/svg+xml</dc:format>
        <dc:type
           rdf:resource="http://purl.org/dc/dcmitype/StillImage" />
        <dc:title></dc:title>
      </cc:Work>
    </rdf:RDF>
  </metadata>
  <g
     inkscape:label="Layer 1"
     inkscape:groupmode="layer"
     id="layer1"
     transform="translate(-75.325874,-90.11124)">
    <g
       id="g1002"
       transform="matrix(2.1492065,0,0,2.1492065,-105.22269,-118.78599)">
      <path
         id="path871"
         style="fill:none;stroke:#f0f4ff;stroke-width:0.4452;stroke-linecap:round;stroke-linejoin:miter;stroke-miterlimit:4;stroke-dasharray:none;stroke-opacity:1"
         d="m 92.808587,102.4177 h 1.192282 m -1.192282,-3.318553 h 1.192282 m -1.192282,0 c -0.21091,-0.399267 -0.625142,-0.673549 -1.109794,-0.673549 h -5.094684 c -0.69804,0 -1.259566,0.562244 -1.259566,1.260282 v 2.14581 c 0,0.69804 0.561526,1.25956 1.259566,1.25956 h 5.094684 c 0.48489,0 0.898982,-0.27396 1.109794,-0.67355 m 1.192282,-3.318553 C 93.752691,98.13199 92.880771,97.419975 91.834075,97.419975 h -5.364534 c -1.24096,0 -2.23986,0.999625 -2.23986,2.240584 v 2.196451 c 0,1.24096 0.9989,2.23988 2.23986,2.23988 h 5.364534 c 1.046934,0 1.918854,-0.71168 2.166794,-1.67919 m -7.44324,-0.67182 v -1.974401 c 0,-0.07756 0.03542,-0.14 0.07938,-0.14 h 2.002952" />
      <path
         id="path880"
         style="fill:none;stroke:#f0f4ff;stroke-width:0.4452;stroke-linecap:round;stroke-linejoin:miter;stroke-miterlimit:4;stroke-dasharray:none;stroke-opacity:1"
         d="m 91.490655,101.93007 h -1.192282 m 1.192282,3.31856 h -1.192282 m 1.192282,0 c 0.21091,0.39926 0.625142,0.67355 1.109794,0.67355 h 5.094684 c 0.69804,0 1.259566,-0.56225 1.259566,-1.26029 v -2.14581 c 0,-0.69804 -0.561526,-1.25957 -1.259566,-1.25957 h -5.094684 c -0.48489,0 -0.898982,0.27398 -1.109794,0.67356 m -1.192282,3.31856 c 0.248178,0.96716 1.120098,1.67917 2.166794,1.67917 h 5.364534 c 1.24096,0 2.239859,-0.99963 2.239859,-2.24059 v -2.19646 c 0,-1.24094 -0.998899,-2.23986 -2.239859,-2.23986 h -5.364534 c -1.046934,0 -1.918854,0.71168 -2.166794,1.67918 m 7.44324,0.67181 v 1.97441 c 0,0.0776 -0.03542,0.14 -0.07938,0.14 h -2.002952" />
      <path
         id="rect910"
         style="fill:#f0f5ff;fill-opacity:1;stroke:none;stroke-width:0.4452;stroke-linecap:round;stroke-miterlimit:4;stroke-dasharray:none;stroke-dashoffset:10.0157;stroke-opacity:1"
         d="m 88.022939,105.32578 c -0.11634,0 -0.210532,0.0942 -0.210532,0.21053 v 0.18738 c 0,0.11634 0.09422,0.21053 0.210532,0.21053 h 0.18809 c 0.11634,0 0.209818,-0.0942 0.209818,-0.21053 v -0.18738 c 0,-0.11634 -0.09352,-0.21053 -0.209818,-0.21053 z m -0.60844,0.60844 c -0.11634,0 -0.209818,0.0935 -0.209818,0.2098 v 0.18811 c 0,0.11634 0.09352,0.2098 0.209818,0.2098 h 0.18809 c 0.11634,0 0.209818,-0.0935 0.209818,-0.2098 v -0.18811 c 0,-0.11634 -0.09352,-0.2098 -0.209818,-0.2098 z m 1.216152,0 c -0.11634,0 -0.209804,0.0935 -0.209804,0.2098 v 0.18811 c 0,0.11634 0.09352,0.2098 0.209804,0.2098 h 0.188104 c 0.11634,0 0.209804,-0.0935 0.209804,-0.2098 v -0.18811 c 0,-0.11634 -0.09352,-0.2098 -0.209804,-0.2098 z m -0.607712,0.60771 c -0.11634,0 -0.210532,0.0935 -0.210532,0.2098 v 0.18811 c 0,0.11634 0.09422,0.21053 0.210532,0.21053 h 0.18809 c 0.11634,0 0.209818,-0.0942 0.209818,-0.21053 v -0.18811 c 0,-0.11633 -0.09352,-0.2098 -0.209818,-0.2098 z" />
      <path
         id="path929"
         style="fill:#f0f5ff;fill-opacity:1;stroke:none;stroke-width:0.4452;stroke-linecap:round;stroke-miterlimit:4;stroke-dasharray:none;stroke-dashoffset:10.0157;stroke-opacity:1"
         d="m 95.598339,97.197375 c -0.11634,0 -0.210532,0.09419 -0.210532,0.210529 v 0.187379 c 0,0.11634 0.09422,0.21053 0.210532,0.21053 h 0.18809 c 0.11634,0 0.209818,-0.09419 0.209818,-0.21053 v -0.187379 c 0,-0.11634 -0.09352,-0.210529 -0.209818,-0.210529 z m -0.60844,0.608438 c -0.11634,0 -0.209818,0.09346 -0.209818,0.209809 v 0.188101 c 0,0.11634 0.09352,0.209807 0.209818,0.209807 h 0.18809 c 0.11634,0 0.209818,-0.09346 0.209818,-0.209807 v -0.188101 c 0,-0.11634 -0.09352,-0.209809 -0.209818,-0.209809 z m 1.216152,0 c -0.11634,0 -0.209804,0.09346 -0.209804,0.209809 v 0.188101 c 0,0.11634 0.09352,0.209807 0.209804,0.209807 h 0.188104 c 0.11634,0 0.209804,-0.09346 0.209804,-0.209807 v -0.188101 c 0,-0.11634 -0.09352,-0.209809 -0.209804,-0.209809 z m -0.607712,0.607717 c -0.11634,0 -0.210532,0.09346 -0.210532,0.209804 v 0.188105 c 0,0.11634 0.09422,0.210531 0.210532,0.210531 h 0.18809 c 0.11634,-5e-6 0.209818,-0.09419 0.209818,-0.210531 v -0.188105 c 0,-0.11634 -0.09352,-0.209804 -0.209818,-0.209804 z" />
      <g
         id="g987"
         transform="translate(0,0.099597)" />
    </g>
  </g>
</svg>
